<svg id="_104490_apple_icon" data-name="104490_apple_icon" xmlns="http://www.w3.org/2000/svg" width="16.707" height="20.517" viewBox="0 0 16.707 20.517">
  <path id="Path_1034" data-name="Path 1034" d="M22.27,22.19a4.648,4.648,0,0,1,2.215-3.908,4.793,4.793,0,0,0-3.752-2.032c-1.6-.162-3.118.941-3.928.941s-2.061-.917-3.385-.894a5.021,5.021,0,0,0-4.245,2.573c-1.809,3.139-.463,7.791,1.3,10.339.862,1.245,1.89,2.646,3.239,2.6,1.3-.051,1.79-.841,3.362-.841s2.013.841,3.388.814c1.4-.025,2.284-1.269,3.139-2.519a11.346,11.346,0,0,0,1.421-2.918A4.533,4.533,0,0,1,22.27,22.19Z" transform="translate(-8.315 -11.287)"/>
  <path id="Path_1035" data-name="Path 1035" d="M31.292,7.65A4.526,4.526,0,0,0,32.36,4.374a4.6,4.6,0,0,0-3.023,1.553A4.3,4.3,0,0,0,28.248,9.1,3.809,3.809,0,0,0,31.292,7.65Z" transform="translate(-19.921 -4.374)"/>
</svg>
