<svg xmlns="http://www.w3.org/2000/svg" width="199.726" height="60.121" viewBox="0 0 199.726 60.121">
  <g id="Group_626" data-name="Group 626" transform="translate(-838.534 -871.783)">
    <path id="Path_1036" data-name="Path 1036" d="M875.146,871.783l-36.612,14.1v9.534l27.717-10.674v7.509l-27.717,10.674V919.5l8.895,3.471V909.03l27.717-10.674Z" fill="#fff"/>
    <path id="Path_1037" data-name="Path 1037" d="M908.534,1051.717l8.895-3.471v-10.518l4.963-1.912v10.494l8.9-3.471v-10.448l4.963-1.912V1040.9l8.9-3.469v-19.911l-36.612,14.1Z" transform="translate(-57.547 -119.813)" fill="#fff"/>
    <path id="Path_1038" data-name="Path 1038" d="M1196.284,929.8q.257,0,.541.01t.571.01a6.784,6.784,0,0,0,4.267-1.143,4.02,4.02,0,0,0,1.446-3.356,3.947,3.947,0,0,0-1.5-3.439,7.745,7.745,0,0,0-4.52-1.081,20.423,20.423,0,0,0-2.146.108q-1.024.108-1.982.283v12.014h3.325Zm0-6.63q.247-.031.536-.051t.6-.021a2.792,2.792,0,0,1,1.879.53,2.161,2.161,0,0,1,.6,1.7,2.094,2.094,0,0,1-.6,1.683,2.852,2.852,0,0,1-1.868.509q-.309,0-.577-.015t-.566-.046Z" transform="translate(-291.373 -40.297)" fill="#fff"/>
    <path id="Path_1039" data-name="Path 1039" d="M1269.61,933.205h3.624l-3.524-4.846a4.019,4.019,0,0,0,1.738-1.274,3.593,3.593,0,0,0,.685-2.239,3.437,3.437,0,0,0-1.462-3.052,7.809,7.809,0,0,0-4.365-.993,18.981,18.981,0,0,0-2.219.129q-1.1.129-2.033.334v11.942h3.264v-4.355q.309.01.618.026t.618.015Zm-4.293-10.048q.309-.041.643-.077a6.387,6.387,0,0,1,.685-.036,3.047,3.047,0,0,1,1.8.427,1.592,1.592,0,0,1,.582,1.374,1.565,1.565,0,0,1-.587,1.349,3.154,3.154,0,0,1-1.853.432q-.37,0-.638-.021t-.628-.031Z" transform="translate(-348.176 -40.297)" fill="#fff"/>
    <path id="Path_1040" data-name="Path 1040" d="M1339.4,930.565a8.092,8.092,0,0,0,0-6.965,5.029,5.029,0,0,0-2.219-2.1,8.447,8.447,0,0,0-6.723-.005,5.026,5.026,0,0,0-2.224,2.095,8.09,8.09,0,0,0,0,6.985,5.035,5.035,0,0,0,2.224,2.09,8.435,8.435,0,0,0,6.717-.005A5.028,5.028,0,0,0,1339.4,930.565Zm-2.944-1.308a2.39,2.39,0,0,1-1.014,1.2,3.264,3.264,0,0,1-1.637.381,3.125,3.125,0,0,1-1.606-.386,2.452,2.452,0,0,1-1.009-1.225,5.82,5.82,0,0,1-.35-2.208,5.4,5.4,0,0,1,.355-2.126,2.421,2.421,0,0,1,1.019-1.194,3.576,3.576,0,0,1,3.212.01,2.469,2.469,0,0,1,1.019,1.23,5.753,5.753,0,0,1,.355,2.2A5.507,5.507,0,0,1,1336.459,929.257Z" transform="translate(-401.935 -40.297)" fill="#fff"/>
    <path id="Path_1041" data-name="Path 1041" d="M1407.484,935.082a6.117,6.117,0,0,0,.793-1.781,7.79,7.79,0,0,0,.237-1.956v-9.677h-3.325v9.749a9.459,9.459,0,0,1-.119,1.585,4.849,4.849,0,0,1-.4,1.282,6.333,6.333,0,0,1-.777,1.21l2.111,1.338A9.771,9.771,0,0,0,1407.484,935.082Z" transform="translate(-464.78 -41.01)" fill="#fff"/>
    <path id="Path_1042" data-name="Path 1042" d="M1455.083,931.5h-6.342v-2.6h5.343v-2.419h-5.343v-2.388h6.249v-2.419H1445.5v12.251h9.584Z" transform="translate(-498.985 -41.011)" fill="#fff"/>
    <path id="Path_1043" data-name="Path 1043" d="M1513.285,933.36a11.7,11.7,0,0,0,1.544-.1,10.706,10.706,0,0,0,1.379-.268v-2.584a12.936,12.936,0,0,1-1.282.268,8.4,8.4,0,0,1-1.312.1,5.638,5.638,0,0,1-2.2-.371,2.543,2.543,0,0,1-1.3-1.184,4.609,4.609,0,0,1-.427-2.141,4.487,4.487,0,0,1,.432-2.11,2.633,2.633,0,0,1,1.323-1.2,5.737,5.737,0,0,1,2.27-.386,11.063,11.063,0,0,1,1.277.072q.618.072,1.215.2v-2.584a9.761,9.761,0,0,0-1.343-.206q-.716-.062-1.436-.062a9.653,9.653,0,0,0-3.927.716,5.261,5.261,0,0,0-2.456,2.126,6.628,6.628,0,0,0-.844,3.459,6.884,6.884,0,0,0,.824,3.552,4.891,4.891,0,0,0,2.4,2.049A10.02,10.02,0,0,0,1513.285,933.36Z" transform="translate(-548.89 -40.297)" fill="#fff"/>
    <path id="Path_1044" data-name="Path 1044" d="M1574.44,933.919v-9.667h4.025v-2.584h-11.386v2.584h4.025v9.667Z" transform="translate(-598.937 -41.011)" fill="#fff"/>
    <path id="Path_1045" data-name="Path 1045" d="M1200.554,1067.792l-3.379-7.237h-3.984v12.251h3.057V1064.9l2.934,6.106h2.635l2.944-6.387v8.188h3.058v-12.251h-3.984Z" transform="translate(-291.563 -155.19)" fill="#fff"/>
    <path id="Path_1046" data-name="Path 1046" d="M1288.485,1060.555l-4.036,12.251h3.223l.937-3.027h4.589l.94,3.027h3.274l-4.056-12.251Zm.878,6.784,1.536-4.962,1.54,4.962Z" transform="translate(-366.587 -155.189)" fill="#fff"/>
    <path id="Path_1047" data-name="Path 1047" d="M1374.552,1068.112l-5.3-7.557h-3.263v12.251h3.068v-7.584l5.3,7.584h3.274v-12.251h-3.078Z" transform="translate(-433.619 -155.19)" fill="#fff"/>
    <path id="Path_1048" data-name="Path 1048" d="M1444.209,1060.555l-4.036,12.251h3.222l.937-3.027h4.589l.94,3.027h3.274l-4.056-12.251Zm.879,6.784,1.536-4.962,1.54,4.962Z" transform="translate(-494.608 -155.189)" fill="#fff"/>
    <path id="Path_1049" data-name="Path 1049" d="M1524.249,1069.67c-.19.009-.376.014-.556.014a5.47,5.47,0,0,1-2.2-.386,2.689,2.689,0,0,1-1.318-1.2,5.067,5.067,0,0,1,.036-4.221,2.834,2.834,0,0,1,1.477-1.215,7.257,7.257,0,0,1,2.6-.391,12.449,12.449,0,0,1,1.349.072,9.9,9.9,0,0,1,1.287.227v-2.594a11.569,11.569,0,0,0-1.395-.216q-.747-.072-1.549-.072a10.89,10.89,0,0,0-4.252.731,5.442,5.442,0,0,0-2.589,2.136,6.423,6.423,0,0,0-.87,3.444,6.532,6.532,0,0,0,.86,3.485,5.15,5.15,0,0,0,2.579,2.08,11.7,11.7,0,0,0,4.3.685q.783,0,1.632-.072t1.683-.206v-5.827h-3.078Z" transform="translate(-557.168 -154.476)" fill="#fff"/>
    <path id="Path_1050" data-name="Path 1050" d="M1596.189,1067.782h5.343v-2.419h-5.343v-2.388h6.249v-2.419h-9.492v12.251h9.585v-2.42h-6.342Z" transform="translate(-620.202 -155.19)" fill="#fff"/>
    <path id="Path_1051" data-name="Path 1051" d="M1666.453,1067.792l-3.379-7.237h-3.984v12.251h3.058V1064.9l2.934,6.106h2.636l2.944-6.387v8.188h3.058v-12.251h-3.984Z" transform="translate(-674.579 -155.19)" fill="#fff"/>
    <path id="Path_1052" data-name="Path 1052" d="M1760.477,1067.782h5.343v-2.419h-5.343v-2.388h6.249v-2.419h-9.492v12.251h9.584v-2.42h-6.342Z" transform="translate(-755.264 -155.19)" fill="#fff"/>
    <path id="Path_1053" data-name="Path 1053" d="M1831.712,1068.112l-5.3-7.557h-3.263v12.251h3.068v-7.584l5.3,7.584h3.274v-12.251h-3.078Z" transform="translate(-809.45 -155.19)" fill="#fff"/>
    <path id="Path_1054" data-name="Path 1054" d="M1897.218,1060.555v2.584h4.025v9.667h3.335v-9.667h4.025v-2.584Z" transform="translate(-870.344 -155.19)" fill="#fff"/>
  </g>
</svg>
