<svg xmlns="http://www.w3.org/2000/svg" width="10" height="6.667" viewBox="0 0 10 6.667">
  <path id="Icon_awesome-eye" data-name="Icon awesome-eye" d="M9.94,7.58A5.568,5.568,0,0,0,5,4.5,5.569,5.569,0,0,0,.06,7.58a.562.562,0,0,0,0,.507A5.568,5.568,0,0,0,5,11.167a5.569,5.569,0,0,0,4.94-3.08A.562.562,0,0,0,9.94,7.58ZM5,10.333a2.5,2.5,0,1,1,2.5-2.5A2.5,2.5,0,0,1,5,10.333ZM5,6.167a1.655,1.655,0,0,0-.439.066A.831.831,0,0,1,3.4,7.394,1.663,1.663,0,1,0,5,6.167Z" transform="translate(0 -4.5)" fill="#707070"/>
</svg>
