<svg xmlns="http://www.w3.org/2000/svg" width="29.978" height="29.978" viewBox="0 0 29.978 29.978">
  <path id="Bugs" d="M423.707,420.294H405.721a6,6,0,0,0-6,6v17.987a6,6,0,0,0,6,6h17.987a6,6,0,0,0,6-6V426.29A6,6,0,0,0,423.707,420.294Zm-12.113,5.478a4.407,4.407,0,0,1,7.526,3.12h-8.813A4.254,4.254,0,0,1,411.594,425.772Zm13.876,11.673a.849.849,0,0,1-.62.262h-3.086a8.047,8.047,0,0,1-.921,3.993l2.864,2.878a.866.866,0,0,1,0,1.241.869.869,0,0,1-1.239,0l-2.728-2.714a2.668,2.668,0,0,1-.206.18c-.092.072-.284.2-.578.392a8.866,8.866,0,0,1-.9.5,6.2,6.2,0,0,1-1.129.4,5.185,5.185,0,0,1-1.337.18V432.417h-1.763v12.341a5.4,5.4,0,0,1-1.4-.186,5.589,5.589,0,0,1-1.2-.456c-.336-.178-.638-.358-.909-.536a5.359,5.359,0,0,1-.6-.448l-.206-.194L407,445.791a.888.888,0,0,1-1.323-1.185l2.782-3.126a8.249,8.249,0,0,1-.8-3.773h-3.086a.882.882,0,0,1,0-1.765h3.086v-4.049l-2.384-2.382a.877.877,0,1,1,1.241-1.239l2.382,2.382h11.623l2.382-2.382a.877.877,0,1,1,1.241,1.239l-2.384,2.382v4.049h3.086a.878.878,0,0,1,.62,1.5Z" transform="translate(-399.725 -420.294)" fill="#f0142f"/>
</svg>
