<svg xmlns="http://www.w3.org/2000/svg" xmlns:xlink="http://www.w3.org/1999/xlink" width="480" height="423.822" viewBox="0 0 480 423.822">
  <defs>
    <linearGradient id="linear-gradient" x1="0.5" x2="0.5" y2="1" gradientUnits="objectBoundingBox">
      <stop offset="0"/>
      <stop offset="1" stop-color="#231f20"/>
    </linearGradient>
    <linearGradient id="linear-gradient-2" x1="0.5" x2="0.5" y2="1" gradientUnits="objectBoundingBox">
      <stop offset="0" stop-color="#045d99"/>
      <stop offset="1" stop-color="#045d99"/>
    </linearGradient>
    <linearGradient id="linear-gradient-3" x1="7.907" y1="7.533" x2="8.907" y2="7.533" xlink:href="#linear-gradient-2"/>
    <linearGradient id="linear-gradient-4" x1="5.627" y1="7.315" x2="6.627" y2="7.315" gradientUnits="objectBoundingBox">
      <stop offset="0" stop-color="#f9b393"/>
      <stop offset="1" stop-color="#fed6be"/>
    </linearGradient>
    <linearGradient id="linear-gradient-5" x1="-0.599" y1="0.711" x2="1.522" y2="1" gradientUnits="objectBoundingBox">
      <stop offset="0" stop-color="#0369bd"/>
      <stop offset="1" stop-color="#7a5bf5"/>
    </linearGradient>
    <linearGradient id="linear-gradient-6" x1="0.001" y1="0.505" x2="1.004" y2="0.505" xlink:href="#linear-gradient"/>
    <clipPath id="clip-path">
      <path id="Path_1591" data-name="Path 1591" d="M334.086,249.689l-12.093,32.855-2.1,16.018,10.182-8.923c.565-.476,1.688-3.009,2.289-4.345l6.09-17.09,4.49-27.252s-6.836-12.347-14.884-26.842Zm-6.023-35.579-.487-2.874-1.222-.218,1.709,3.107m-41-82.811a21.653,21.653,0,0,0-5.723.145c-.58.1-2.315,3.755-3.558,6.37-1.58,3.32-1.9,8.654-1.9,12.067,0,4.278,4.267,9.058,9.54,12.429,2.336,1.5.88,9.322-.342,10.073s-23.72,17.381-23.72,17.381l-2.346,13.149-13.237,73.2-4.552,5.51a4.832,4.832,0,0,0-1.507,2.7c-.3,1.642-.378,4.371,1.424,4.982,3.863,1.315,10.544,2.341,11.622,1.212,8.058-8.436-.119-2.755-1.714-4.278l3.558-8.97-5.137-5.764,4.811-2.123,13.413-68.88,58.662,10.508c-10.441-18.867-22.13-40.054-23.176-42.255a8.286,8.286,0,0,1-.627-5.769,36.581,36.581,0,0,1,3.107-7.706c.9-1.305,1.393-3.775,1.694-5.179s.264-.963-.989.264c-.342.331-1.419.388-1.906-1.8s-6.96-5.267-10.125-7.944c0,0-3.366-.865-6.733-2.02" transform="translate(-239.55 -131.19)"/>
    </clipPath>
    <linearGradient id="linear-gradient-7" x1="-2.302" y1="-0.406" x2="-2.292" y2="-0.406" xlink:href="#linear-gradient-4"/>
    <clipPath id="clip-path-2">
      <path id="Path_1592" data-name="Path 1592" d="M342.845,111.253c1.139.849,4.418,3.92,5.635,4.889,1.326,1.077,2.123,2.548,3.294,4.464a45.331,45.331,0,0,1,1.984,4.879c2.46,6.3.036,9.042-1.875,13.507-2.641,6.153-8.638,7.1-9.11,7.986-4.749-1.554-5.3-.968-7.39-.306-2.662-1.771-3.827-4.19-5.251-5.433.875-1.248,1.269-11.813-3.625-6.639,1.932-2.035-3.242-8.369-4.33-9.156s-2.258-1.673-2.16-2.118c.57-2.548-3.625-2.129.083-4.837,2.978-2.17,4.112-7.131,8.012-7.525,2.419-.243,5.505-.518,7.944-.88,1.745-.264,3.144.575,4.635.751a5.49,5.49,0,0,1,2.248.756" transform="translate(-318.552 -110.032)" fill="url(#linear-gradient)"/>
    </clipPath>
    <linearGradient id="linear-gradient-8" x1="-80.482" y1="-10.843" x2="-79.257" y2="-10.843" xlink:href="#linear-gradient"/>
    <clipPath id="clip-path-3">
      <path id="Path_1593" data-name="Path 1593" d="M262.571,473.662c-.518,4.542,2.936,28.308,2.936,32.845S274,559.451,274,559.451l13.413-.606s-2.672-71.3-2.408-74.768,14.957-44.86,14.957-44.86,1.067,10.948,1.067,14.418,4.065,104.278,4.065,104.278h11.694l16.619-148.5-.316-2.859-61.329-8.509s-8.649,71.076-9.187,75.612" transform="translate(-262.518 -398.05)" fill="url(#linear-gradient-2)"/>
    </clipPath>
    <linearGradient id="linear-gradient-9" x1="1.024" y1="0.827" x2="1.946" y2="0.827" xlink:href="#linear-gradient-2"/>
    <clipPath id="clip-path-4">
      <path id="Path_1594" data-name="Path 1594" d="M272.2,214.936c-7.054,4.4-10.508,9.742-11.849,14.154-3.47,11.394-1.5,9.809-4.956,24.113-4.361,18.017-3.185,29.168-3.713,35.538-.606,7.354-4.661,27.857-1.631,28.324,1.554.238,1.3.984,8.162.3,1.766-.171,5.64-15.185,5.64-15.185s-.238,9.762,1.668,10.715c1.683.839,21.363,6.577,26.122,8.4a101.666,101.666,0,0,0,10.43,1.036l24.786-3.444s-.347-46.957.083-54.8c.43-7.68-.518-11.963.829-9.881,1.523,2.32,8,23.424,8,27s-7.162,34.787-7.162,34.787l9.524,5.241s12.854-34.285,13.569-38.811.953-6.9-1.186-11.425S336.7,225.512,336.7,225.512s-2.589-3.781-9.762-7.618c-4.951-1.792-14.967-7.613-22.575-4.91a88.43,88.43,0,0,1-17.992.575,32.7,32.7,0,0,0-10.56-.249" transform="translate(-248.933 -212.279)" fill="#0369bd"/>
    </clipPath>
    <linearGradient id="linear-gradient-10" x1="0.021" y1="0.449" x2="1.096" y2="0.688" xlink:href="#linear-gradient-5"/>
    <clipPath id="clip-path-5">
      <rect id="Rectangle_1145" data-name="Rectangle 1145" width="28.795" height="144.943"/>
    </clipPath>
    <clipPath id="clip-path-6">
      <rect id="Rectangle_1146" data-name="Rectangle 1146" width="78.839" height="34.238" transform="translate(0 78.358) rotate(-83.67)"/>
    </clipPath>
    <clipPath id="clip-path-7">
      <path id="Path_1606" data-name="Path 1606" d="M281.68,417.65s-6.876,18.2-8.333,35-6.368,44.069-6.849,60.295c-.393,13.394-8.915,58.032-9.193,63.147-.244,4.471-1.524,22.946-1.524,22.946h11.8S277.845,553.049,281.2,545.2c3.123-7.337,17.872-66.649,17.614-72.13a30.818,30.818,0,0,1,1.3-10.067s2.283,21,4.458,27.539c1.612,4.851,2.574,20.846,2.574,20.846s-2.337,15.25-2.9,24.389c-1.416,23.034.5,63.181.5,63.181h12.194s1.5-27.614,4.444-38.236c4.525-16.259,11.517-50.539,11.517-53.032,0-2.256-2.134-47.525-2.107-54.2,0-2.866-.061-9.119-.135-12.438a25.573,25.573,0,0,0-.393-3.936l-3.191-17.872Z" transform="translate(-255.78 -417.65)" fill="#045d99"/>
    </clipPath>
    <linearGradient id="linear-gradient-11" x1="-0.494" y1="1.28" x2="-1.297" y2="1.28" xlink:href="#linear-gradient-2"/>
    <clipPath id="clip-path-8">
      <path id="Path_1607" data-name="Path 1607" d="M231.351,222.994c3.387.562,8.055,4.288,15.771,7.134,4.431,1.633,10.027,23.515,10.027,23.515l.081-.088-2.127,1.965c.44.44-.2,1.545-.2,2.168l.393,2.459,3.32.44L253.2,292.6l5.135,22.025,8.807,17.675.677,18.752s7.615,12.411,7.452,13.834,5.982,7.825,9.911,10.23c2.52,3.076,9.349,15.27,3.387,13.766-5.623-1.416-11.077-9.41-11.517-10.636-4.471-12.465-6.544-13.929-6.958-14.992-6.294-16.131-10.88-31.3-10.291-43.853.21-4.349-36.3,9.769-24.308-4.79,8.739-10.616-22.221-39.767-14.864-70.789,3.557-14.986,5.806-20.2,9.146-20.846Z" transform="translate(-219.492 -222.98)"/>
    </clipPath>
    <linearGradient id="linear-gradient-12" x1="4.732" y1="-0.498" x2="4.724" y2="-0.498" xlink:href="#linear-gradient-4"/>
    <linearGradient id="linear-gradient-13" x1="-5.493" y1="5.351" x2="-6.583" y2="4.67" xlink:href="#linear-gradient-5"/>
    <linearGradient id="linear-gradient-14" x1="38.548" y1="-29.775" x2="38.486" y2="-29.775" xlink:href="#linear-gradient-4"/>
    <clipPath id="clip-path-9">
      <path id="Path_1610" data-name="Path 1610" d="M298.153,218.118s10.738.386,13.807,10.934,3.523,25.236,3.631,27.546c.108,2.425-1.131,18.969.21,23.549,1.186,4.065,4.681,11.578,6.775,16.781a32.048,32.048,0,0,1,1.809,6.382l.244,1.8a3.509,3.509,0,0,1-4.708,2.188,27.836,27.836,0,0,1-3.11-1.64c-3.272-1.965-7.96-6.355-10.643-8.841-3.347-3.1-4.214-5.9-6.538-8.441-1.843-2.032-1.734-4.288-1.8-6.192-.339-9.8.867-15.487,5.765-21.645,3.313-4.16,7.134-15.765,3.489-21.13s-12.777-9.789-13.156-11.131-.677,4.024-4.607,7.452c-3.469,3.076-5.718,5.217-7.066,8.353-.528,1.233-.345,7.249,2.168,15.067,2.629,8.163,4.519,17.248-.854,24.538s-18.8,17.492-19.748,19.8,0,12.526.352,18.292-10.907-9.844-10.521-17.33-.962-10.738,6.714-22.248,12.662-31.265,12.872-36.062,2.493-18.027,7.1-21.869c3.936-3.279,4.783-6.422,12.987-6.422a48.459,48.459,0,0,1,4.851.285" transform="translate(-253.64 -217.84)"/>
    </clipPath>
  </defs>
  <g id="Group_1486" data-name="Group 1486" transform="translate(-131.862 -2353)">
    <path id="Path_1614" data-name="Path 1614" d="M4500.061,2677.97c73.27-52.06,229.115-53.988,393.174,0s5.952,102.191-142.515,111.833S4426.792,2730.03,4500.061,2677.97Z" transform="translate(-4351 -13.886)" fill="#0052cc" opacity="0.06"/>
    <g id="Group_1485" data-name="Group 1485" transform="translate(196.667 2353)">
      <g id="Man_simple" transform="translate(116.592 0)">
        <g id="Group_1469" data-name="Group 1469" transform="translate(0 283.285)">
          <path id="Path_1579" data-name="Path 1579" d="M73.269,332.637c-1.329-5.582-1.772-12.759-2.658-12.937h-.975l-9.392.089s-1.949,8.949-2.924,12.671c-.089.266-.266.886-.443,1.329a7.269,7.269,0,0,0-.177,1.949c.177,3.367,1.506,6.291,4.519,7.8,3.367,1.684,5.937,3.278,9.392,0S74.6,338.219,73.269,332.637Z" transform="translate(-6.507 -319.7)" fill="#032c4d"/>
          <path id="Path_1580" data-name="Path 1580" d="M37.132,320.7l-11.873.62s-4.7,8.152-11.608,10.1c-6.468,1.861-17.19,6.38-12.4,8.949,3.544,2.038,26.4.177,31.987.62,4.165.354,5.316-2.215,4.873-7.8C37.753,329.029,37.132,320.7,37.132,320.7Z" transform="translate(-0.053 -319.814)" fill="#032c4d"/>
        </g>
        <path id="Path_1581" data-name="Path 1581" d="M24.7,153.3s-7.975,65.569-8.506,69.822,2.747,26.139,2.747,30.3,7.8,48.911,7.8,48.911l12.4-.532s-2.481-65.835-2.215-69.025S50.749,191.4,50.749,191.4s.975,10.1.975,13.291,3.721,96.316,3.721,96.316h10.81L81.584,163.844l-.266-2.658Z" transform="translate(-1.885 -17.457)" fill="url(#linear-gradient-3)"/>
        <path id="Path_1582" data-name="Path 1582" d="M60.244,10.4s-11.873,4.608-14.532,5.671-4.165,4.342-4.165,4.342-1.329-.8-1.329,1.418,1.063,7.266,1.949,8.595a72.616,72.616,0,0,1,3.81,6.734c1.063,2.3.709,7.089-.443,7.8S24.358,63.741,24.358,63.741L7.7,115.045,9.915,131.26l3.367,15.949s-.709,1.152.709,2.481,7.443,11.253,7.443,11.253l2.038-14.62-6.823-21.709-2.392-18.253L30.206,73.754,85.5,83.589l6.025,35.531-11.164,30.3-1.949,14.8,9.392-8.24a17.964,17.964,0,0,0,2.127-3.987l5.582-15.772,4.165-25.164S64.763,48.147,62.991,44.425c-.8-1.684.089-5.759.532-7.8.443-1.861,1.329-4.253,2.215-4.962a10.655,10.655,0,0,0,2.3-5.316c0-1.329.532-6.468-.8-5.228-.266.354-1.241-1.24-1.684-3.278A14.915,14.915,0,0,0,60.244,10.4Z" transform="translate(-0.924 -1.176)" fill="url(#linear-gradient-4)"/>
        <path id="Path_1583" data-name="Path 1583" d="M54.979,66.4a2.2,2.2,0,0,1-3.013-.089,24.727,24.727,0,0,1-1.684-2.924C49.4,61.613,42.574,51.6,42.574,51.6s-16.215,4.165-18.785,5.848c-2.658,1.772-5.051,4.165-5.937,7.266s-13.38,39.519-14,41.734-3.81,5.759-2.3,14.709,9.924,31.9,10.81,32.164,9.835-4.165,9.835-4.165-7.089-28.531-7.089-31.367,6.38-10.9,8.949-16.392,4.43-10.278,5.316-12.671-7.62,47.4-7.62,47.4-.177,9.038,1.506,9.924c1.595.8,20.645,8.063,25.076,9.747a1.067,1.067,0,0,0,1.24-.532h0l2.835-8.063c0-.089.089-.177.177-.089a.087.087,0,0,1,.089.089l2.658,8.772a.911.911,0,0,0,1.063.62l23.481-5.051s-.354-43.329.089-50.595c.354-7.089-.532-11.076.8-9.127,1.418,2.127,7.354,21.62,7.354,24.9S81.472,148.8,81.472,148.8l8.772,4.873s11.873-31.633,12.494-35.8.886-6.38-1.063-10.544-12.759-42-12.759-42-1.063-4.608-9.038-7S65.966,52.4,64.548,52.486s-5.848,8.418-7.8,10.9C55.865,64.359,56.042,64.8,54.979,66.4Z" transform="translate(-0.178 -5.87)" fill="url(#linear-gradient-5)"/>
        <path id="Path_1584" data-name="Path 1584" d="M64.054,9.3s-13.38,4.873-16.126,6.911a6.663,6.663,0,0,0-2.481,2.924s-1.418-.62-1.329,1.418-1.595-3.19-2.038-4.873a11.15,11.15,0,0,1,3.19-9.835C48.9,2.391,52.889-.178,56.256,0A12.667,12.667,0,0,1,65.028,3.72c2.658,2.57,3.278,2.392,3.81,2.658a10.857,10.857,0,0,1,3.633,6.38,31.613,31.613,0,0,1-.62,7.886.99.99,0,0,0-1.329-.177c-.709.532-.886-3.013-3.19-7.354C65.649,9.923,64.054,9.3,64.054,9.3Z" transform="translate(-4.823 0.01)" fill="url(#linear-gradient-6)"/>
        <path id="Path_1585" data-name="Path 1585" d="M53.9,188.7c-1.506,4.43-7.443,13.114-11.342,18.342S26.7,223.257,27.5,236.636s8.861,47.848,8.861,50.949-3.013,17.721-5.316,22.24-3.367,12.582-2.215,12.582a32.449,32.449,0,0,0,6.468-.886c1.949-.443,3.9-.886,5.759-1.506.8-.354.975-2.924.975-2.924a9.55,9.55,0,0,0-.354-3.19,34.97,34.97,0,0,1-1.24-5.051c-.443-12.582-1.595-41.734-1.329-43.772.443-3.81-2.658-23.038.177-32.519S53.9,188.7,53.9,188.7Z" transform="translate(-3.175 -21.49)" opacity="0.07"/>
        <path id="Path_1586" data-name="Path 1586" d="M24.638,161.7,22.6,177.472s2.038,3.278,2.658.532,4.873-7.886,2.215-11.607S24.638,161.7,24.638,161.7Z" transform="translate(-2.622 -18.414)" opacity="0.07"/>
        <path id="Path_1587" data-name="Path 1587" d="M88.983,166.6l-.709,7.532-.886,7.266s-3.013,2.215-2.924-.62-5.051-7.089-1.152-9.924S88.983,166.6,88.983,166.6Z" transform="translate(-9.372 -18.972)" opacity="0.07"/>
        <path id="Path_1588" data-name="Path 1588" d="M47.675,50.344c.532-.089-2.57.709.177-.177C52.548,48.661,50.6,39.8,50.6,39.8s.443,3.278,4.873,4.608,5.582.354-1.063,3.456-3.19,4.165-2.747,8.24" transform="translate(-5.368 -4.526)" opacity="0.07"/>
        <path id="Path_1589" data-name="Path 1589" d="M31.843,95.544,24.4,140.734s.089,8.063,1.506,9.215,6.2,1.949,7.266,2.747,12.582,4.608,9.57-1.861c-.709-1.418-16.215-10.1-9.3-19.228s5.671-21.709,2.392-30.481A40.113,40.113,0,0,1,33.172,85Z" transform="translate(-2.827 -9.676)" opacity="0.07"/>
      </g>
      <g id="man_with_documents" transform="translate(179.978 63.797)">
        <path id="Path_1590" data-name="Path 1590" d="M63.57,233.833l8.115,49.821,30.255-4.915,1.776-48.76Z" transform="translate(-63.57 -113.807)" fill="#fafafa"/>
        <g id="Group_1470" data-name="Group 1470" transform="translate(31.845 10.958)" clip-path="url(#clip-path)">
          <rect id="Rectangle_1141" data-name="Rectangle 1141" width="168.393" height="181.418" transform="translate(-64.768 -13.89)" fill="url(#linear-gradient-7)"/>
        </g>
        <g id="Group_1471" data-name="Group 1471" transform="translate(72.76 0)" clip-path="url(#clip-path-2)">
          <rect id="Rectangle_1142" data-name="Rectangle 1142" width="38.391" height="41.706" transform="translate(-6.072 36.061) rotate(-83.1)" fill="url(#linear-gradient-8)"/>
        </g>
        <g id="Group_1472" data-name="Group 1472" transform="translate(43.74 149.163)" clip-path="url(#clip-path-3)">
          <rect id="Rectangle_1143" data-name="Rectangle 1143" width="71.029" height="161.262" transform="translate(-0.418 -0.435)" fill="url(#linear-gradient-9)"/>
        </g>
        <g id="Group_1473" data-name="Group 1473" transform="translate(36.704 52.953)" clip-path="url(#clip-path-4)">
          <rect id="Rectangle_1144" data-name="Rectangle 1144" width="157.362" height="146.714" transform="translate(-53.795 -34.621)" fill="url(#linear-gradient-10)"/>
        </g>
        <path id="Path_1595" data-name="Path 1595" d="M265.014,714.831c5.339-1.036,4.661-7.219,4.661-7.219l13.149-.482a36.933,36.933,0,0,1,1.766,9.467c.114,3.4,1.284,8.017-2.072,8.659-4.008.761-26.444-.4-28.551-3.045-2.745-3.439,3.822-5.769,8.8-6.733" transform="translate(-214.344 -397.897)" fill="#032c4d"/>
        <path id="Path_1596" data-name="Path 1596" d="M322.705,713.977c5.339-1.036,5.7-7.478,5.7-7.478l11.7-.249a52.065,52.065,0,0,1,1.1,8.882c.109,3.4,1.419,7.97-1.476,8.628-3.977.9-25.983.238-28.091-2.4-2.745-3.439,3.827-5.769,8.8-6.733" transform="translate(-242.147 -397.473)" fill="#032c4d"/>
        <g id="Group_1475" data-name="Group 1475" transform="translate(54.84 182.323)" opacity="0.07">
          <g id="Group_1474" data-name="Group 1474" clip-path="url(#clip-path-5)">
            <path id="Path_1597" data-name="Path 1597" d="M312.137,463.17c-1.657,4.842-8.11,14.232-12.243,19.82s-17.147,17.531-16.319,32.058,9.628,51.789,9.628,55.15-3.294,19.219-5.769,24.061-2.02,9.907-.782,9.907a11.858,11.858,0,0,0,5.407,0c2.139-.575,5,1.745,6.215,1.186.849-.4,1.036-3.138,1.036-3.138a9.534,9.534,0,0,0-.4-3.485,33.756,33.756,0,0,1-1.367-5.479c-.518-13.652-1.678-45.233-1.45-47.439.43-4.143-2.848-24.968.145-35.217s15.925-47.4,15.925-47.4" transform="translate(-283.751 -462.605)"/>
          </g>
        </g>
        <g id="Group_1477" data-name="Group 1477" transform="translate(83.453 84.779)" opacity="0.07">
          <g id="Group_1476" data-name="Group 1476" transform="translate(0)" clip-path="url(#clip-path-6)">
            <path id="Path_1598" data-name="Path 1598" d="M374.218,291.99l-.119,48.376s1.212,10.254-.471,11.394-8.6,1.994-10.684,1.994c-1.424,0-20.545,2.232-13.735-1.17,3.05-1.528,22.15-12.248,16.055-22.787s-3.294-24.025,1.191-33.119,7.856-15.236,7.856-15.236Z" transform="translate(-343.321 -277.448)"/>
          </g>
        </g>
        <path id="Path_1599" data-name="Path 1599" d="M326.73,187.155a5.055,5.055,0,0,0,3.568-.518c.575-.337,2.672-1.833,3.7-2.657,2.217-1.771-2.45,3.946-3.32,7.219-.968,3.625-2.025-2.331-2.807-3.169a3.107,3.107,0,0,0-1.145-.875Z" transform="translate(-249.735 -145.522)" opacity="0.07"/>
        <path id="Path_1600" data-name="Path 1600" d="M366.23,438.577s-4.475,18.017-8.447,23.305c-4.283,5.7.44,31.788-3.532,43.27-3.755,10.85,1.326,34.44.44,41.949-.725,6.153-.88,19.447-4.107,26.842-1.1,2.517-3.444,4.371-3.444,5.567,0,6.624,8.928,2.351,8.928,2.351l.466-5.873,6.122-51.841L373.925,421.3Z" transform="translate(-259.575 -260.096)" opacity="0.07"/>
        <path id="Path_1601" data-name="Path 1601" d="M290.1,315.956s4.428-12.108,4.635-18.411.963,17.608.963,17.608-3.724-1.129-5.6.8" transform="translate(-232.075 -199.923)" opacity="0.1"/>
        <path id="Path_1602" data-name="Path 1602" d="M286.663,382.629,282,332.336s-5.6-.849-5.6.8c0,2.776-2.035,10.648-3.107,15.179-.963,4.143-2.589,8.566-5.257,17.826a73.643,73.643,0,0,1-3.47,8.53l-2.864,8.452s-.741.875,4.449-.383h0s.658-.243.772.4h0Z" transform="translate(-218.369 -217.101)" fill="#fafafa"/>
      </g>
      <g id="Group_1483" data-name="Group 1483" transform="translate(0 12.993)">
        <g id="Group_1482" data-name="Group 1482" transform="translate(0 0)">
          <g id="Group_1484" data-name="Group 1484" transform="translate(0 316.08)">
            <path id="Path_1603" data-name="Path 1603" d="M355.219,684.651l11.517-.251s-.359,9.322.677,13.068c.061.237.264.847.4,1.287a8.094,8.094,0,0,1,.183,1.958c-.19,3.387-1.463,6.287-4.485,7.825-3.326,1.687-5.9,3.238-9.437,0s-4.133-5.311-2.656-10.914,3.834-12.974,3.834-12.974" transform="translate(-350.665 -684.4)" fill="#032c4d"/>
            <path id="Path_1604" data-name="Path 1604" d="M268.016,695.252c-6.619-1.883-10.426-9.972-10.426-9.972H245.4s-.318,7.6-.644,11.727c-.427,5.474.637,7.92,4.695,7.622,5.338-.386,27.1,1.355,30.533-.583,4.444-2.547-5.765-7.039-11.957-8.807" transform="translate(-191.921 -684.684)" fill="#032c4d"/>
          </g>
          <g id="Group_1479" data-name="Group 1479" transform="translate(4.493 135.365)" clip-path="url(#clip-path-7)">
            <path id="Path_1605" data-name="Path 1605" d="M52.44,384.312l105.1.542,1.579-185.532-105.1-.542Z" transform="translate(-69.377 -199.485)" fill="url(#linear-gradient-11)"/>
          </g>
          <g id="Group_1480" data-name="Group 1480" transform="translate(34.746 3.482)" clip-path="url(#clip-path-8)">
            <rect id="Rectangle_1148" data-name="Rectangle 1148" width="136.544" height="176.758" transform="translate(-41.526 0)" fill="url(#linear-gradient-12)"/>
          </g>
          <path id="Path_1608" data-name="Path 1608" d="M317.819,401.41,303.9,363.1l-2.188-11.307a41.394,41.394,0,0,1-.677-10.426,76.018,76.018,0,0,0-.569-14.159c-1.091-8.638-2.744-14.4-4.993-16.578-3.462-3.34-14.227-7.655-19.8-5.535-12.432,4.742-18.292-1.687-22.072-.434s-16.259,3.442-18.793,21-5.955,30.073-6.449,38.141c-.291,4.783-2.032,15.724,5.826,15.1s29.511-13.468,39.341-17.54,10.453-7.567,10.162-10.359-14.721,0-20.67,3.469-18.793,8.13-19.735,6.267.515-7.005,2.337-13.4c1.572-5.494,1.626-8.692,2.405-10.406,1.551-3.435,2.642,10.84,2.642,14.755a38.975,38.975,0,0,1-.447,4.857s-.217,2.154-.434,3.536c-1.172,7.391-3.516,24.917-3.516,24.917h0l47.524.312-5.02-21c.135.251-.068-12.73.867-10.331,1.8,4.62,4.153,17.269,10.921,32.071l9.119,18.522Z" transform="translate(-217.382 -245.789)" fill="url(#linear-gradient-13)"/>
          <path id="Path_1609" data-name="Path 1609" d="M276.053,402.59s-5.806-14.139-4.932-22.56a92.167,92.167,0,0,0-.806-21.367c-.379-2.391-1.755,5.244-2.168,8.685-.847,7.066-.034.976-3.164,8.319s-.569,10.731.969,13.549c2.29,4.166-.969,13.211-.969,13.211Z" transform="translate(-199.667 -263.113)" opacity="0.1"/>
          <path id="hand" d="M267.256,373.806l-.962,9.186,15.582-5.65s8.075-5.731-3.225-5.643A33.352,33.352,0,0,0,267.256,373.806Z" transform="translate(-210.177 -267.464)" fill="url(#linear-gradient-14)"/>
          <g id="Group_1481" data-name="Group 1481" transform="translate(12.078 0)" clip-path="url(#clip-path-9)">
            <rect id="Rectangle_1149" data-name="Rectangle 1149" width="71.947" height="109.682" transform="translate(-0.946 -0.007)" fill="url(#linear-gradient)"/>
          </g>
        </g>
      </g>
    </g>
  </g>
</svg>
