<svg xmlns="http://www.w3.org/2000/svg" width="30.021" height="30.021" viewBox="0 0 30.021 30.021">
  <path id="Path_305" data-name="Path 305" d="M462.4,464.96H444.384a6.009,6.009,0,0,0-6,6v18.013a6,6,0,0,0,6,6H462.4a6.009,6.009,0,0,0,6-6V470.964A6.022,6.022,0,0,0,462.4,464.96Zm-14.49,20.635a.434.434,0,0,1-.52-.22,1.077,1.077,0,0,1-.16-.56v-2.061c0-.14-.04-.18-.18-.18-.4,0-.8-.02-1.2,0a1.584,1.584,0,0,1-1.621-1.241,1.848,1.848,0,0,1-.08-.58v-7.465a1.812,1.812,0,0,1,1.841-1.841h10.928a1.807,1.807,0,0,1,1.8,1.381,2.011,2.011,0,0,1,.08.48v7.405a1.833,1.833,0,0,1-1.861,1.861h-5.584a.422.422,0,0,0-.32.12l-2.442,2.442A1.428,1.428,0,0,1,447.907,485.595Zm14.71-.861a1.711,1.711,0,0,1-1.241,1.661,1.944,1.944,0,0,1-.34.02c-.42,0-.861.02-1.281,0-.16,0-.22.04-.22.2.02.68,0,1.381,0,2.081a1.039,1.039,0,0,1-.14.54.485.485,0,0,1-.54.22,1.6,1.6,0,0,1-.641-.44c-.7-.7-1.441-1.381-2.1-2.121a1.39,1.39,0,0,0-1.181-.48c-1.661.02-3.342,0-5,0a1.71,1.71,0,0,1-.62-.08l1.081-1.081a.3.3,0,0,1,.18-.04h5.424a.331.331,0,0,1,.24.1c.641.64,1.281,1.3,1.941,1.941.04.04.08.1.12.14.06-.04.04-.12.04-.16v-1.821c0-.18.04-.2.2-.2h2.342c.36,0,.52-.14.54-.5v-.22c0-2.422,0-4.843.02-7.265a.668.668,0,0,0-.74-.72,2.164,2.164,0,0,0-.36,0c-.14.02-.2-.02-.2-.18.02-.3,0-.6,0-.9,0-.06-.02-.14.1-.14a2.612,2.612,0,0,1,1.541.3,1.68,1.68,0,0,1,.841,1.481C462.637,479.63,462.637,482.172,462.617,484.734Z" transform="translate(-438.38 -464.96)" fill="#0052cc"/>
</svg>
