<svg xmlns="http://www.w3.org/2000/svg" width="30.798" height="30.798" viewBox="0 0 30.798 30.798">
  <path id="Path_1205" data-name="Path 1205" d="M321.059,385.73H302.58a6.158,6.158,0,0,0-6.16,6.16v18.479a6.158,6.158,0,0,0,6.16,6.16h18.479a6.168,6.168,0,0,0,6.16-6.16V391.89A6.168,6.168,0,0,0,321.059,385.73Zm-9.239,7.7h7.7a1.54,1.54,0,0,1,0,3.08h-7.7a1.54,1.54,0,0,1,0-3.08Zm9.239,7.7a1.544,1.544,0,0,1-1.54,1.54H314.9a1.54,1.54,0,0,1,0-3.08h4.62A1.535,1.535,0,0,1,321.059,401.129ZM304.3,404.763l-2.187-2.171c-.015-.015-.015-.031-.031-.046a1.534,1.534,0,0,1,.031-2.171,1.567,1.567,0,0,1,2.187.031l1.078,1.093,3.28-3.265a1.535,1.535,0,0,1,2.171,2.171l-4.358,4.358A1.533,1.533,0,0,1,304.3,404.763Zm7.515,4.065a1.54,1.54,0,1,1,0-3.08h7.7a1.54,1.54,0,1,1,0,3.08Z" transform="translate(-296.42 -385.73)" fill="#0052cc"/>
</svg>
