<svg xmlns="http://www.w3.org/2000/svg" width="30" height="30" viewBox="0 0 30 30">
  <path id="Team" d="M26,30H4a4,4,0,0,1-4-4V4A4,4,0,0,1,4,0H26a4,4,0,0,1,4,4V26A4.005,4.005,0,0,1,26,30ZM12.568,13.393a1.933,1.933,0,0,0-1.931,1.931v5.239a4.966,4.966,0,1,0,9.931,0V15.324a1.933,1.933,0,0,0-1.931-1.931Zm8.41,0a3.039,3.039,0,0,1,.694,1.932v5.239l-.01.348a5.983,5.983,0,0,1-.58,2.264,4.419,4.419,0,0,0,5.551-4.265V15.324A1.934,1.934,0,0,0,24.7,13.393Zm-10.75,0H6.5L6.34,13.4a1.942,1.942,0,0,0-1.773,1.925v3.584a4.42,4.42,0,0,0,4.414,4.414,4.369,4.369,0,0,0,1.14-.15,6.024,6.024,0,0,1-.588-2.609V15.324l.01-.243A3.006,3.006,0,0,1,10.229,13.392ZM22.771,6.773a2.758,2.758,0,1,0,2.758,2.759A2.762,2.762,0,0,0,22.771,6.773ZM15.6,5.67a3.31,3.31,0,1,0,3.31,3.31A3.314,3.314,0,0,0,15.6,5.67Zm-7.171,1.1a2.758,2.758,0,1,0,2.759,2.759A2.762,2.762,0,0,0,8.429,6.773Z" fill="#28a745"/>
</svg>
